<?xml version="1.0" encoding="UTF-8"?>
<svg width="456" height="456" viewBox="0 0 456 456" xmlns="http://www.w3.org/2000/svg">
  <defs>
    <radialGradient id="glow" cx="50%" cy="58%" r="58%">
      <stop offset="0" stop-color="#496984"/>
      <stop offset="0.58" stop-color="#16283D"/>
      <stop offset="1" stop-color="#02060C"/>
    </radialGradient>
  </defs>
  <rect width="456" height="456" rx="88" fill="url(#glow)"/>
  <rect x="37" y="37" width="382" height="382" rx="74" fill="none" stroke="#061122" stroke-width="10"/>
  <g transform="translate(110 74)">
    <path d="M34 48 H202 L177 250 Q118 273 59 250 Z" fill="#E8F6FF" stroke="#061122" stroke-width="16" stroke-linejoin="round"/>
    <rect x="22" y="18" width="192" height="42" rx="12" fill="#F7FFFA" stroke="#061122" stroke-width="16"/>
    <path d="M49 116 C86 101 118 135 187 113 L170 238 Q118 258 67 238 Z" fill="#8FC9FF"/>
    <circle cx="82" cy="154" r="13" fill="#061122"/>
    <circle cx="154" cy="154" r="13" fill="#061122"/>
    <circle cx="58" cy="187" r="14" fill="#E83AAF"/>
    <circle cx="178" cy="187" r="14" fill="#E83AAF"/>
    <path d="M86 191 Q118 224 150 191" fill="none" stroke="#061122" stroke-width="12" stroke-linecap="round"/>
  </g>
</svg>
